<svg width="24" height="24" viewBox="0 0 24 24" fill="none" xmlns="http://www.w3.org/2000/svg">
<g clip-path="url(#clip0_57_906)">
<mask id="mask0_57_906" style="mask-type:luminance" maskUnits="userSpaceOnUse" x="0" y="0" width="24" height="24">
<path d="M23.5568 9.81819H12.375V14.4546H18.8114C18.2114 17.4 15.7023 19.0909 12.375 19.0909C8.44773 19.0909 5.28409 15.9273 5.28409 12C5.28409 8.07273 8.44773 4.90909 12.375 4.90909C14.0659 4.90909 15.5932 5.50909 16.7932 6.49091L20.2841 3C18.1568 1.14545 15.4296 0 12.375 0C5.72046 0 0.375 5.34546 0.375 12C0.375 18.6546 5.72046 24 12.375 24C18.375 24 23.8296 19.6364 23.8296 12C23.8296 11.2909 23.7205 10.5273 23.5568 9.81819Z" fill="white"/>
</mask>
<g mask="url(#mask0_57_906)">
<path d="M-0.71582 19.0909V4.90906L8.55691 12L-0.71582 19.0909Z" fill="#FBBC05"/>
</g>
<mask id="mask1_57_906" style="mask-type:luminance" maskUnits="userSpaceOnUse" x="0" y="0" width="24" height="24">
<path d="M23.5568 9.81819H12.375V14.4546H18.8114C18.2114 17.4 15.7023 19.0909 12.375 19.0909C8.44773 19.0909 5.28409 15.9273 5.28409 12C5.28409 8.07273 8.44773 4.90909 12.375 4.90909C14.0659 4.90909 15.5932 5.50909 16.7932 6.49091L20.2841 3C18.1568 1.14545 15.4296 0 12.375 0C5.72046 0 0.375 5.34546 0.375 12C0.375 18.6546 5.72046 24 12.375 24C18.375 24 23.8296 19.6364 23.8296 12C23.8296 11.2909 23.7205 10.5273 23.5568 9.81819Z" fill="white"/>
</mask>
<g mask="url(#mask1_57_906)">
<path d="M-0.71582 4.90906L8.55691 12L12.3751 8.6727L25.466 6.54542V-1.09094H-0.71582V4.90906Z" fill="#EA4335"/>
</g>
<mask id="mask2_57_906" style="mask-type:luminance" maskUnits="userSpaceOnUse" x="0" y="0" width="24" height="24">
<path d="M23.5568 9.81819H12.375V14.4546H18.8114C18.2114 17.4 15.7023 19.0909 12.375 19.0909C8.44773 19.0909 5.28409 15.9273 5.28409 12C5.28409 8.07273 8.44773 4.90909 12.375 4.90909C14.0659 4.90909 15.5932 5.50909 16.7932 6.49091L20.2841 3C18.1568 1.14545 15.4296 0 12.375 0C5.72046 0 0.375 5.34546 0.375 12C0.375 18.6546 5.72046 24 12.375 24C18.375 24 23.8296 19.6364 23.8296 12C23.8296 11.2909 23.7205 10.5273 23.5568 9.81819Z" fill="white"/>
</mask>
<g mask="url(#mask2_57_906)">
<path d="M-0.71582 19.0909L15.6478 6.54542L19.9569 7.09088L25.466 -1.09094V25.0909H-0.71582V19.0909Z" fill="#34A853"/>
</g>
<mask id="mask3_57_906" style="mask-type:luminance" maskUnits="userSpaceOnUse" x="0" y="0" width="24" height="24">
<path d="M23.5568 9.81819H12.375V14.4546H18.8114C18.2114 17.4 15.7023 19.0909 12.375 19.0909C8.44773 19.0909 5.28409 15.9273 5.28409 12C5.28409 8.07273 8.44773 4.90909 12.375 4.90909C14.0659 4.90909 15.5932 5.50909 16.7932 6.49091L20.2841 3C18.1568 1.14545 15.4296 0 12.375 0C5.72046 0 0.375 5.34546 0.375 12C0.375 18.6546 5.72046 24 12.375 24C18.375 24 23.8296 19.6364 23.8296 12C23.8296 11.2909 23.7205 10.5273 23.5568 9.81819Z" fill="white"/>
</mask>
<g mask="url(#mask3_57_906)">
<path d="M25.4659 25.0909L8.55682 12L6.375 10.3636L25.4659 4.90906V25.0909Z" fill="#4285F4"/>
</g>
</g>
<defs>
<clipPath id="clip0_57_906">
<rect width="24" height="24" fill="white"/>
</clipPath>
</defs>
</svg>
