<svg width="312" height="232" viewBox="0 0 312 232" fill="none" xmlns="http://www.w3.org/2000/svg">
<path d="M312 203.878H0V204.034H312V203.878Z" fill="#E4E7EB"/>
<path d="M278.042 207.882H263.534V208.038H278.042V207.882Z" fill="#E4E7EB"/>
<path d="M225.264 211.264H156.356V211.42H225.264V211.264Z" fill="#E4E7EB"/>
<path d="M126.878 211.344H120.12V211.501H126.878V211.344Z" fill="#E4E7EB"/>
<path d="M72.1094 209.476H48.672V209.632H72.1094V209.476Z" fill="#E4E7EB"/>
<path d="M257.494 207.882H243.778V208.038H257.494V207.882Z" fill="#E4E7EB"/>
<path d="M43.5802 209.476H32.2296V209.632H43.5802V209.476Z" fill="#E4E7EB"/>
<path d="M147.888 176.105H27.3998C26.4559 176.103 25.5513 175.728 24.8844 175.061C24.2176 174.394 23.843 173.491 23.843 172.549V3.52459C23.8512 2.58803 24.2294 1.69254 24.8954 1.0326C25.5613 0.372671 26.4613 0.00160436 27.3998 0H147.888C148.833 0 149.739 0.37462 150.407 1.04145C151.076 1.70827 151.451 2.61269 151.451 3.55572V172.549C151.451 173.492 151.076 174.397 150.407 175.063C149.739 175.73 148.833 176.105 147.888 176.105ZM27.3998 0.124544C26.4973 0.126194 25.6323 0.485138 24.9947 1.12259C24.3571 1.76004 23.999 2.62392 23.999 3.52459V172.549C23.999 173.45 24.3571 174.314 24.9947 174.951C25.6323 175.589 26.4973 175.947 27.3998 175.949H147.888C148.791 175.947 149.657 175.589 150.295 174.951C150.934 174.314 151.293 173.45 151.295 172.549V3.52459C151.293 2.62334 150.934 1.75949 150.295 1.12221C149.657 0.484936 148.791 0.12619 147.888 0.124544H27.3998Z" fill="#E4E7EB"/>
<path d="M282.865 176.105H162.371C161.427 176.103 160.521 175.728 159.853 175.062C159.186 174.395 158.81 173.492 158.808 172.549V3.52459C158.818 2.58747 159.197 1.69197 159.864 1.03221C160.531 0.372453 161.432 0.00158687 162.371 0H282.865C283.803 0.00324094 284.701 0.375032 285.366 1.03479C286.031 1.69455 286.408 2.58911 286.416 3.52459V172.549C286.416 173.49 286.042 174.392 285.377 175.059C284.711 175.725 283.808 176.101 282.865 176.105ZM162.371 0.124544C161.468 0.12619 160.602 0.484936 159.964 1.12221C159.325 1.75949 158.966 2.62334 158.964 3.52459V172.549C158.966 173.45 159.325 174.314 159.964 174.951C160.602 175.589 161.468 175.947 162.371 175.949H282.865C283.769 175.947 284.634 175.589 285.273 174.951C285.911 174.314 286.271 173.45 286.273 172.549V3.52459C286.271 2.62334 285.911 1.75949 285.273 1.12221C284.634 0.484936 283.769 0.12619 282.865 0.124544H162.371Z" fill="#E4E7EB"/>
<path d="M201.908 93.4825H249.063V11.5515H201.908V93.4825Z" fill="#E4E7EB"/>
<path d="M199.362 93.4825H246.517V11.5515H199.362V93.4825Z" fill="#EBEEF2"/>
<path d="M241.937 89.6404V15.3999L203.929 15.3999V89.6404H241.937Z" fill="#EBEEF2"/>
<path d="M205.858 89.6404V15.3999H203.929V89.6404H205.858Z" fill="#E4E7EB"/>
<path d="M201.252 71.7185H244.627V66.5553H201.252V71.7185Z" fill="#EBEEF2"/>
<path d="M121.767 93.4825H168.923V11.5515H121.767V93.4825Z" fill="#E4E7EB"/>
<path d="M119.221 93.4825H166.377V11.5515H119.221V93.4825Z" fill="#EBEEF2"/>
<path d="M161.803 89.6404V15.3999L123.795 15.3999V89.6404H161.803Z" fill="#EBEEF2"/>
<path d="M125.717 89.6341V15.3936H123.789V89.6341H125.717Z" fill="#E4E7EB"/>
<path d="M121.112 71.7185H164.486V66.5553H121.112V71.7185Z" fill="#EBEEF2"/>
<path d="M41.6333 93.4825H88.7889L88.7889 11.5515H41.6333L41.6333 93.4825Z" fill="#E4E7EB"/>
<path d="M39.0873 93.4825H86.243L86.243 11.5515H39.0873L39.0873 93.4825Z" fill="#EBEEF2"/>
<path d="M81.6629 89.6341V15.3936L43.655 15.3936L43.655 89.6341H81.6629Z" fill="#EBEEF2"/>
<path d="M45.5832 89.6404L45.5832 15.3999H43.655L43.655 89.6404H45.5832Z" fill="#E4E7EB"/>
<path d="M40.9781 71.7185H84.3523V66.5553H40.9781V71.7185Z" fill="#EBEEF2"/>
<path d="M87.36 144.172C78.8549 145.342 73.5946 126.898 92.352 111.28C91.3723 129.357 102.199 142.129 87.36 144.172Z" fill="#E4E7EB"/>
<path d="M81.12 168.327C68.7898 159.702 77.2262 129.569 115.384 131.755C98.8853 153.936 102.623 183.36 81.12 168.327Z" fill="#E4E7EB"/>
<path d="M85.488 168.134C93.6811 159.329 82.0185 137.166 52.5345 145.262C69.1704 159.833 71.1921 183.478 85.488 168.134Z" fill="#E4E7EB"/>
<path d="M74.9673 155.281C72.1344 151.837 68.7897 147.964 69.6009 143.867C70.4121 139.769 72.4401 136.724 70.8489 132.365C68.9145 127.134 69.2889 120.895 72.5587 121.418C75.8285 121.941 79.4913 125.777 79.4227 130.827C79.3665 135.734 82.5427 137.303 85.6003 139.912C88.6579 142.522 89.7374 146.339 90.2803 150.075C91.2288 156.01 98.9352 154.889 100.982 160.039C103.097 165.02 98.879 171.652 92.1336 173.178C85.3881 174.704 80.5833 175.669 75.9845 170.401C71.3107 164.852 79.1606 160.213 74.9673 155.281Z" fill="#EBEEF2"/>
<path d="M98.1739 203.878H72.8333L70.9238 169.429H100.083L98.1739 203.878Z" fill="#EBEEF2"/>
<path d="M101.974 168.726H69.0331V172.438H101.974V168.726Z" fill="#EBEEF2"/>
<path d="M247.566 199.202H264.613V125.428H247.566V199.202Z" fill="#EBEEF2"/>
<path d="M113.974 203.878L261.337 203.878V199.201L113.974 199.201V203.878Z" fill="#EBEEF2"/>
<path d="M247.566 125.428H110.704V199.201H247.566V125.428Z" fill="#EBEEF2"/>
<path d="M240.864 134.507H117.406V158.706H240.864V134.507Z" fill="#EBEEF2"/>
<path d="M240.864 165.923H117.406V190.122H240.864V165.923Z" fill="#EBEEF2"/>
<path d="M140.731 148.263H217.539C217.979 148.262 218.4 148.087 218.711 147.776C219.022 147.466 219.197 147.046 219.199 146.607C219.199 146.167 219.024 145.745 218.713 145.433C218.402 145.121 217.98 144.945 217.539 144.944H140.731C140.29 144.945 139.868 145.121 139.557 145.433C139.246 145.745 139.071 146.167 139.071 146.607C139.073 147.046 139.248 147.466 139.559 147.776C139.87 148.087 140.291 148.262 140.731 148.263Z" fill="#EBEEF2"/>
<path d="M140.731 179.68H217.539C217.979 179.678 218.4 179.503 218.711 179.193C219.022 178.882 219.197 178.462 219.199 178.023C219.197 177.584 219.022 177.164 218.711 176.853C218.4 176.543 217.979 176.368 217.539 176.366H140.731C140.291 176.368 139.87 176.543 139.559 176.853C139.248 177.164 139.073 177.584 139.071 178.023C139.073 178.462 139.248 178.882 139.559 179.193C139.87 179.503 140.291 179.678 140.731 179.68Z" fill="#EBEEF2"/>
<path d="M209.783 114.661C209.783 114.661 229.314 133.131 240.908 114.586C240.908 114.586 237.825 108.627 234.574 108.116C231.323 107.606 231.192 113.272 228.334 111.523C225.476 109.773 222.138 103.788 220.316 106.983C218.494 110.178 215.991 105.625 213.265 105.364C210.538 105.102 209.783 114.661 209.783 114.661Z" fill="#EBEEF2"/>
<path d="M242.149 113.385C242.149 113.385 241.725 125.428 225.264 125.428C208.803 125.428 208.379 113.385 208.379 113.385H242.149Z" fill="#EBEEF2"/>
<path d="M158.877 107.108H168.355V125.428H140.525C140.525 120.57 142.458 115.911 145.9 112.476C149.341 109.04 154.009 107.109 158.877 107.108Z" fill="#EBEEF2"/>
<path d="M177.097 107.108H168.355V125.428H177.097V107.108Z" fill="#E4E7EB"/>
<path d="M156 232C222.819 232 276.987 228.844 276.987 224.951C276.987 221.058 222.819 217.902 156 217.902C89.1805 217.902 35.0126 221.058 35.0126 224.951C35.0126 228.844 89.1805 232 156 232Z" fill="#EBEEF2"/>
<path d="M136.032 88.8991L135.62 89.5218C135.495 89.7024 135.364 89.8643 135.24 90.0325C134.984 90.3687 134.715 90.6552 134.447 90.9977C133.904 91.6204 133.355 92.2431 132.768 92.7911C131.596 93.9158 130.345 94.9563 129.024 95.9047C127.706 96.8528 126.319 97.7021 124.875 98.4454C124.145 98.8003 123.421 99.1677 122.666 99.4667L121.536 99.915L121.218 100.033C121.044 100.089 120.881 100.152 120.688 100.195C120.31 100.289 119.922 100.333 119.533 100.326C118.792 100.321 118.063 100.139 117.406 99.7967C116.877 99.5213 116.392 99.171 115.964 98.7568C115.287 98.0899 114.701 97.336 114.223 96.515C113.406 95.0933 112.739 93.5907 112.233 92.0314C111.251 89.0919 110.549 86.0667 110.136 82.9958L112.744 82.4229C113.219 83.7866 113.705 85.194 114.242 86.5515C114.779 87.909 115.315 89.2603 115.939 90.5431C116.507 91.7813 117.184 92.967 117.961 94.0864C118.27 94.5504 118.641 94.9695 119.065 95.3318C119.187 95.4316 119.324 95.5114 119.471 95.5684C119.558 95.5684 119.552 95.5684 119.508 95.5684H119.465L119.671 95.4688L120.6 95.0204C121.224 94.7215 121.817 94.3977 122.416 94.0365C123.598 93.33 124.74 92.5587 125.836 91.7263C126.918 90.8779 127.945 89.9628 128.912 88.9863C129.399 88.513 129.861 88.0086 130.304 87.498C130.522 87.2427 130.74 86.9874 130.928 86.7321L131.227 86.3522L131.471 86.0284L136.032 88.8991Z" fill="#B97964"/>
<path d="M128.475 88.6315L131.639 96.2037L129.349 97.6298L125.792 90.7612L128.475 88.6315Z" fill="#263238"/>
<path d="M137.43 82.2548C132.269 82.1863 127.028 88.7062 126.897 88.8681L130.978 98.4455C130.978 98.4455 140.057 91.0912 140.512 88.2142C140.987 85.219 140.7 82.2984 137.43 82.2548Z" fill="#2F4EFF"/>
<path opacity="0.3" d="M137.43 82.2548C132.269 82.1863 127.028 88.7062 126.897 88.8681L130.978 98.4455C130.978 98.4455 140.057 91.0912 140.512 88.2142C140.987 85.219 140.7 82.2984 137.43 82.2548Z" fill="#191D23"/>
<path d="M112.32 81.4333L108.751 78.6617L108.027 84.1176C108.027 84.1176 111.496 85.4754 113.343 84.2982L113.293 83.3017C113.275 82.9389 113.178 82.5842 113.01 82.2618C112.842 81.9395 112.607 81.6569 112.32 81.4333Z" fill="#B97964"/>
<path d="M103.996 78.3878L104.22 82.5296L108.046 84.1177L108.769 78.6619L103.996 78.3878Z" fill="#B97964"/>
<path d="M182.208 80.9915L187.724 79.6151L183.868 75.6851C183.868 75.6851 180.292 77.1425 181.166 80.2566L182.208 80.9915Z" fill="#B97964"/>
<path d="M190.464 78.6375L190.008 74.3152L183.837 75.6854L187.693 79.6154L190.464 78.6375Z" fill="#B97964"/>
<path d="M164.218 219.489L159.083 219.981L154.796 207.888L159.931 207.39L164.218 219.489Z" fill="#B97964"/>
<path d="M219.192 194.064L215.411 197.726L205.689 190.153L209.477 186.492L219.192 194.064Z" fill="#B97964"/>
<path d="M214.319 197.016L217.227 191.866C217.276 191.777 217.355 191.71 217.451 191.675C217.546 191.641 217.65 191.642 217.745 191.679L222.163 193.385C222.272 193.433 222.37 193.502 222.45 193.59C222.531 193.678 222.592 193.781 222.63 193.894C222.667 194.007 222.681 194.126 222.669 194.245C222.657 194.363 222.621 194.477 222.562 194.581C221.52 196.362 220.927 197.165 219.648 199.432C218.862 200.827 217.327 204.021 216.241 205.945C215.155 207.87 213.19 206.898 213.47 206.001C214.718 201.972 214.506 199.724 214.169 197.943C214.107 197.626 214.161 197.297 214.319 197.016Z" fill="#263238"/>
<path d="M158.059 218.412H164.299C164.411 218.415 164.52 218.453 164.608 218.521C164.697 218.59 164.761 218.685 164.792 218.792L166.152 223.731C166.187 223.848 166.193 223.971 166.171 224.091C166.149 224.21 166.098 224.323 166.024 224.419C165.95 224.516 165.854 224.594 165.744 224.646C165.634 224.699 165.513 224.724 165.391 224.721C163.201 224.684 162.134 224.553 159.382 224.553C157.691 224.553 152.181 224.734 149.841 224.734C147.501 224.734 147.077 222.423 148.025 222.243C152.268 221.302 155.85 220.013 157.154 218.78C157.396 218.543 157.721 218.411 158.059 218.412Z" fill="#263238"/>
<path d="M154.802 207.888L157.005 214.129H162.321L159.937 207.39L154.802 207.888Z" fill="#A76755"/>
<path d="M209.483 186.492L205.695 190.16L210.706 194.058L214.494 190.396L209.483 186.492Z" fill="#A76755"/>
<path d="M132.407 83.9175C132.407 83.9175 130.285 85.5303 144.581 113.372L164.961 106.802C161.94 98.6386 160.281 93.5385 158.721 75.2742C155.698 75.6079 152.703 76.1594 149.76 76.9244C146.613 77.7147 143.522 78.7111 140.506 79.9072C136.612 81.5761 132.407 83.9175 132.407 83.9175Z" fill="#2F4EFF"/>
<path opacity="0.3" d="M132.407 83.9175C132.407 83.9175 130.285 85.5303 144.581 113.372L164.961 106.802C161.94 98.6386 160.281 93.5385 158.721 75.2742C155.698 75.6079 152.703 76.1594 149.76 76.9244C146.613 77.7147 143.522 78.7111 140.506 79.9072C136.612 81.5761 132.407 83.9175 132.407 83.9175Z" fill="#191D23"/>
<path d="M145.448 66.8177C145.823 69.9812 147.002 75.6105 149.729 76.9245C149.729 76.9245 149.885 80.2 144.356 81.9809C138.272 83.9425 140.475 79.9073 140.475 79.9073C143.539 78.0391 142.653 75.6105 141.33 73.4933L145.448 66.8177Z" fill="#B97964"/>
<path d="M135.221 82.4105C136.725 81.6321 138.64 80.6856 140.475 79.9196C143.494 78.7016 146.597 77.7006 149.76 76.9244C151.538 76.4386 153.336 76.0775 154.852 75.8221C154.995 76.2456 154.565 77.3416 153.51 78.8548C150.172 81.6197 143.052 85.2127 137.804 85.082C135.508 84.2288 134.934 83.3259 135.221 82.4105Z" fill="#B97964"/>
<path d="M153.504 78.8547C151.237 81.8869 148.528 84.5632 145.467 86.7944C142.86 86.4777 140.291 85.9041 137.798 85.0819C143.021 85.2127 150.141 81.6196 153.504 78.8547Z" fill="#263238"/>
<path d="M143.77 69.5389L141.33 73.4814C141.648 73.9728 141.922 74.4918 142.147 75.0322C143.358 74.4405 144.899 72.6904 144.606 71.2953C144.432 70.6657 144.149 70.0713 143.77 69.5389Z" fill="#A76755"/>
<path d="M146.684 60.9766C146.996 66.1887 147.245 68.3869 144.949 71.3635C141.498 75.8346 135.015 75.0998 133.143 70.0682C131.464 65.5535 131.233 57.7882 136.057 55.123C137.117 54.5287 138.311 54.2143 139.527 54.2096C140.743 54.205 141.939 54.5103 143.004 55.0966C144.068 55.6829 144.965 56.5307 145.609 57.5597C146.253 58.5887 146.623 59.7648 146.684 60.9766Z" fill="#B97964"/>
<path d="M156.999 51.6353C158.179 46.4573 154.929 41.3054 149.741 40.128C144.552 38.9507 139.39 42.1938 138.21 47.3717C137.03 52.5497 140.28 57.7016 145.468 58.879C150.657 60.0563 155.82 56.8132 156.999 51.6353Z" fill="#263238"/>
<path d="M145.199 53.6784C147.183 54.9863 148.169 56.9918 147.401 58.1565C146.634 59.3212 144.4 59.2091 142.409 57.9011C140.419 56.5932 139.439 54.5877 140.207 53.4231C140.974 52.2584 143.208 52.3705 145.199 53.6784Z" fill="#2F4EFF"/>
<path opacity="0.6" d="M145.199 53.6784C147.183 54.9863 148.169 56.9918 147.401 58.1565C146.634 59.3212 144.4 59.2091 142.409 57.9011C140.419 56.5932 139.439 54.5877 140.207 53.4231C140.974 52.2584 143.208 52.3705 145.199 53.6784Z" fill="#EBEEF2"/>
<path d="M144.144 64.5323C144.662 63.3367 142.859 59.7872 143.245 58.4608C142.21 57.4956 131.708 60.9081 132.556 58.4172C133.368 56.026 135.926 52.8563 141.767 54.1827C148.007 55.6025 148.549 60.989 147.851 62.7077C147.152 64.4264 146.16 66.2136 146.16 66.2136L144.144 64.5323Z" fill="#263238"/>
<path d="M148.056 65.5476C148.069 66.5564 147.684 67.5298 146.983 68.2569C146.041 69.2098 144.905 68.5247 144.612 67.2915C144.344 66.1829 144.518 64.3456 145.729 63.8598C145.996 63.756 146.284 63.7209 146.568 63.7575C146.853 63.7941 147.123 63.9013 147.354 64.0693C147.586 64.2373 147.772 64.4607 147.894 64.719C148.017 64.9773 148.073 65.2622 148.056 65.5476Z" fill="#B97964"/>
<path d="M144.581 113.372C144.581 113.372 135.133 159.354 140.4 174.517C145.879 190.29 154.796 212.31 154.796 212.31L163.126 211.836C163.126 211.836 156.262 184.013 154.571 171.447C152.256 154.123 162.171 107.73 162.171 107.73L144.581 113.372Z" fill="#2F4EFF"/>
<path opacity="0.6" d="M144.581 113.372C144.581 113.372 135.133 159.354 140.4 174.517C145.879 190.29 154.796 212.31 154.796 212.31L163.126 211.836C163.126 211.836 156.262 184.013 154.571 171.447C152.256 154.123 162.171 107.73 162.171 107.73L144.581 113.372Z" fill="#EBEEF2"/>
<path d="M163.781 212.036L154.14 212.591L152.593 208.804L163.226 207.701L163.781 212.036Z" fill="#2F4EFF"/>
<path opacity="0.2" d="M163.781 212.036L154.14 212.591L152.593 208.804L163.226 207.701L163.781 212.036Z" fill="#191D23"/>
<path d="M154.571 116.909C153.123 122.252 154.334 130.26 157.067 135.877C157.735 131.518 158.446 127.296 159.12 123.516C157.716 120.807 156.168 118.404 154.571 116.909Z" fill="#2F4EFF"/>
<path opacity="0.4" d="M154.571 116.909C153.123 122.252 154.334 130.26 157.067 135.877C157.735 131.518 158.446 127.296 159.12 123.516C157.716 120.807 156.168 118.404 154.571 116.909Z" fill="#EBEEF2"/>
<path d="M149.96 111.635C149.96 111.635 163.987 145.093 173.279 163.463C180.767 178.321 208.553 193.871 208.553 193.871L213.545 188.59C213.545 188.59 192.779 170.189 187.599 160.113C171.026 127.863 174.433 113.777 164.973 106.802L149.96 111.635Z" fill="#2F4EFF"/>
<path opacity="0.6" d="M149.96 111.635C149.96 111.635 163.987 145.093 173.279 163.463C180.767 178.321 208.553 193.871 208.553 193.871L213.545 188.59C213.545 188.59 192.779 170.189 187.599 160.113C171.026 127.863 174.433 113.777 164.973 106.802L149.96 111.635Z" fill="#EBEEF2"/>
<path d="M214.475 187.837L207.611 195.116L203.268 192.837L211.174 184.792L214.475 187.837Z" fill="#2F4EFF"/>
<path opacity="0.2" d="M214.475 187.837L207.611 195.116L203.268 192.837L211.174 184.792L214.475 187.837Z" fill="#191D23"/>
<path d="M164.88 105.513L166.383 107.039C166.502 107.157 166.383 107.357 166.146 107.431L144.774 114.281C144.587 114.343 144.406 114.281 144.356 114.188L143.589 112.432C143.532 112.307 143.657 112.151 143.857 112.083L164.493 105.439C164.558 105.417 164.628 105.412 164.696 105.425C164.764 105.438 164.827 105.469 164.88 105.513Z" fill="#263238"/>
<path d="M162.864 108.709L163.413 108.534C163.525 108.497 163.588 108.41 163.563 108.347L162.539 106.062C162.539 105.999 162.39 105.974 162.284 106.005L161.728 106.186C161.622 106.186 161.554 106.304 161.585 106.373L162.608 108.652C162.627 108.721 162.739 108.746 162.864 108.709Z" fill="#2F4EFF"/>
<path opacity="0.6" d="M162.864 108.709L163.413 108.534C163.525 108.497 163.588 108.41 163.563 108.347L162.539 106.062C162.539 105.999 162.39 105.974 162.284 106.005L161.728 106.186C161.622 106.186 161.554 106.304 161.585 106.373L162.608 108.652C162.627 108.721 162.739 108.746 162.864 108.709Z" fill="#EBEEF2"/>
<path d="M146.39 114.014L146.946 113.833C147.052 113.796 147.12 113.715 147.089 113.646L146.066 111.367C146.035 111.298 145.922 111.273 145.81 111.311L145.255 111.485C145.149 111.523 145.08 111.604 145.111 111.672L146.135 113.952C146.166 114.02 146.278 114.045 146.39 114.014Z" fill="#2F4EFF"/>
<path opacity="0.6" d="M146.39 114.014L146.946 113.833C147.052 113.796 147.12 113.715 147.089 113.646L146.066 111.367C146.035 111.298 145.922 111.273 145.81 111.311L145.255 111.485C145.149 111.523 145.08 111.604 145.111 111.672L146.135 113.952C146.166 114.02 146.278 114.045 146.39 114.014Z" fill="#EBEEF2"/>
<path d="M154.621 111.361L155.17 111.18C155.282 111.18 155.351 111.062 155.32 110.994L154.296 108.714C154.265 108.646 154.147 108.621 154.041 108.658L153.485 108.839C153.379 108.87 153.311 108.957 153.342 109.019L154.365 111.305C154.396 111.341 154.438 111.365 154.484 111.376C154.53 111.386 154.578 111.381 154.621 111.361Z" fill="#2F4EFF"/>
<path opacity="0.6" d="M154.621 111.361L155.17 111.18C155.282 111.18 155.351 111.062 155.32 110.994L154.296 108.714C154.265 108.646 154.147 108.621 154.041 108.658L153.485 108.839C153.379 108.87 153.311 108.957 153.342 109.019L154.365 111.305C154.396 111.341 154.438 111.365 154.484 111.376C154.53 111.386 154.578 111.381 154.621 111.361Z" fill="#EBEEF2"/>
<path d="M138.996 63.3802C139.046 63.7975 138.865 64.1712 138.59 64.2024C138.316 64.2335 138.047 63.9221 137.998 63.4986C137.948 63.0751 138.129 62.7076 138.403 62.6765C138.678 62.6453 138.946 62.9567 138.996 63.3802Z" fill="#263238"/>
<path d="M134.222 63.9595C134.279 64.383 134.091 64.7505 133.817 64.7816C133.542 64.8128 133.274 64.5014 133.224 64.0841C133.174 63.6668 133.355 63.2931 133.63 63.2557C133.904 63.2183 134.16 63.5173 134.222 63.9595Z" fill="#263238"/>
<path d="M133.754 63.2686L132.706 63.1C132.706 63.1 133.324 63.8308 133.754 63.2686Z" fill="#263238"/>
<path d="M135.576 64.5323C135.316 65.5384 134.919 66.5043 134.397 67.4035C134.632 67.5286 134.891 67.6022 135.157 67.6194C135.423 67.6366 135.689 67.597 135.938 67.5032L135.576 64.5323Z" fill="#A24E3F"/>
<path d="M137.611 68.9788C137.581 68.9792 137.551 68.9687 137.528 68.9492C137.506 68.9297 137.49 68.9027 137.486 68.873C137.484 68.8395 137.494 68.8065 137.515 68.7801C137.536 68.7537 137.565 68.7357 137.598 68.7297C138.124 68.6774 138.63 68.5025 139.076 68.2191C139.521 67.9356 139.893 67.5516 140.163 67.0979C140.17 67.0826 140.179 67.0688 140.192 67.0573C140.204 67.0458 140.218 67.0369 140.234 67.0311C140.25 67.0253 140.266 67.0227 140.283 67.0235C140.3 67.0242 140.316 67.0284 140.331 67.0356C140.346 67.0429 140.359 67.0531 140.37 67.0655C140.381 67.0779 140.389 67.0924 140.395 67.108C140.4 67.1237 140.402 67.1402 140.401 67.1566C140.399 67.1731 140.395 67.1891 140.388 67.2038C140.104 67.6987 139.705 68.1182 139.225 68.4271C138.745 68.7361 138.198 68.9253 137.629 68.9788H137.611Z" fill="#263238"/>
<path d="M139.589 61.8858C139.529 61.8851 139.471 61.863 139.427 61.8236C139.196 61.6105 138.917 61.4558 138.615 61.3724C138.312 61.2889 137.993 61.2792 137.686 61.344C137.654 61.3534 137.62 61.3564 137.587 61.3527C137.554 61.349 137.522 61.3387 137.493 61.3225C137.464 61.3062 137.438 61.2843 137.418 61.2581C137.397 61.2318 137.382 61.2017 137.374 61.1696C137.364 61.1381 137.361 61.105 137.365 61.0724C137.369 61.0397 137.379 61.0082 137.395 60.9797C137.412 60.9512 137.434 60.9262 137.46 60.9064C137.486 60.8866 137.516 60.8723 137.548 60.8644C137.935 60.7796 138.337 60.7879 138.72 60.8886C139.103 60.9893 139.456 61.1796 139.751 61.4436C139.775 61.4668 139.793 61.4944 139.806 61.5249C139.819 61.5554 139.825 61.5881 139.825 61.6211C139.825 61.6542 139.819 61.6869 139.806 61.7173C139.793 61.7478 139.775 61.7755 139.751 61.7986C139.71 61.8468 139.652 61.8779 139.589 61.8858Z" fill="#263238"/>
<path d="M131.758 62.0292C131.721 62.038 131.682 62.038 131.645 62.0292C131.588 61.9976 131.544 61.9449 131.525 61.8823C131.505 61.8197 131.51 61.7519 131.539 61.6929C131.71 61.3368 131.963 61.0263 132.278 60.7869C132.592 60.5476 132.959 60.3864 133.349 60.3165C133.414 60.3095 133.479 60.3284 133.531 60.3692C133.582 60.41 133.615 60.4694 133.623 60.5345C133.628 60.5672 133.625 60.6005 133.617 60.6324C133.608 60.6643 133.593 60.6942 133.573 60.7203C133.553 60.7463 133.527 60.7681 133.498 60.7844C133.47 60.8006 133.438 60.8109 133.405 60.8148C133.097 60.872 132.807 61.002 132.56 61.1937C132.312 61.3855 132.114 61.6335 131.982 61.9171C131.958 61.954 131.925 61.9838 131.885 62.0034C131.846 62.0231 131.802 62.032 131.758 62.0292Z" fill="#263238"/>
<path d="M162.864 80.1376L163.101 80.4365L163.394 80.7914C163.594 81.0281 163.8 81.2709 164.018 81.5076C164.449 81.9871 164.898 82.4603 165.379 82.9087C166.319 83.8293 167.313 84.6943 168.355 85.4992C169.413 86.2989 170.511 87.045 171.644 87.7348C172.212 88.0773 172.792 88.4011 173.378 88.7187L174.271 89.1732L174.701 89.3912C174.807 89.441 174.913 89.4908 175.013 89.5282C175.332 89.6607 175.673 89.7304 176.018 89.7337C176.335 89.7156 176.639 89.6027 176.892 89.4099C177.728 88.7182 178.388 87.8391 178.82 86.8443C179.399 85.6447 179.865 84.3939 180.211 83.108C180.597 81.7965 180.916 80.4663 181.166 79.1226L183.83 79.2907C183.914 82.3562 183.475 85.4137 182.532 88.3326C182.265 89.1283 181.921 89.8959 181.503 90.6242C181.039 91.4542 180.44 92.2013 179.731 92.8348C178.886 93.5838 177.852 94.0895 176.742 94.2982C175.662 94.4862 174.553 94.4092 173.509 94.074C173.266 94.0055 173.041 93.9183 172.811 93.8312L172.268 93.607L171.207 93.1649C170.502 92.8473 169.809 92.5421 169.129 92.1561C167.764 91.4372 166.448 90.6279 165.192 89.7337C163.933 88.8281 162.734 87.8421 161.604 86.782C161.042 86.2465 160.499 85.6798 159.969 85.0944C159.707 84.7955 159.444 84.4717 159.195 84.1853L158.814 83.6933C158.683 83.5189 158.583 83.382 158.409 83.1329L162.864 80.1376Z" fill="#B97964"/>
<path d="M167.288 83.4193L163.382 89.9641L161.479 88.1706L165.085 81.6134L167.288 83.4193Z" fill="#263238"/>
<path d="M158.746 75.2741C160.992 75.2367 166.446 81.6632 166.446 81.6632L161.703 89.9017C161.703 89.9017 155.663 84.59 155.669 81.6819C155.675 78.6492 156.187 75.3488 158.746 75.2741Z" fill="#2F4EFF"/>
<path opacity="0.3" d="M158.746 75.2741C160.992 75.2367 166.446 81.6632 166.446 81.6632L161.703 89.9017C161.703 89.9017 155.663 84.59 155.669 81.6819C155.675 78.6492 156.187 75.3488 158.746 75.2741Z" fill="#191D23"/>
<path d="M213.296 199.812C213.122 199.805 212.955 199.742 212.821 199.631C212.759 199.59 212.709 199.532 212.677 199.464C212.645 199.395 212.632 199.32 212.64 199.245C212.697 198.573 214.388 197.688 214.575 197.589C214.595 197.575 214.619 197.568 214.643 197.568C214.668 197.568 214.692 197.575 214.712 197.589C214.731 197.604 214.745 197.625 214.753 197.648C214.76 197.671 214.761 197.696 214.756 197.719C214.562 198.392 214.132 199.55 213.508 199.756C213.441 199.787 213.369 199.806 213.296 199.812ZM214.425 197.944C213.764 198.317 212.921 198.903 212.89 199.251C212.885 199.285 212.891 199.319 212.907 199.35C212.922 199.38 212.947 199.404 212.977 199.42C213.036 199.476 213.108 199.516 213.187 199.535C213.266 199.553 213.349 199.55 213.427 199.525C213.77 199.426 214.132 198.84 214.425 197.956V197.944Z" fill="#2F4EFF"/>
<path d="M213.065 198.18C212.791 198.203 212.516 198.136 212.285 197.987C212.21 197.922 212.159 197.834 212.141 197.737C212.123 197.639 212.138 197.539 212.185 197.451C212.218 197.361 212.273 197.28 212.343 197.214C212.413 197.148 212.498 197.099 212.591 197.072C213.314 196.829 214.637 197.557 214.693 197.589C214.714 197.599 214.731 197.616 214.743 197.635C214.755 197.655 214.762 197.678 214.762 197.701C214.761 197.722 214.755 197.743 214.744 197.761C214.733 197.78 214.718 197.795 214.7 197.806C214.19 198.053 213.631 198.181 213.065 198.18ZM212.934 197.271C212.845 197.27 212.757 197.282 212.672 197.308C212.614 197.326 212.561 197.357 212.517 197.398C212.473 197.439 212.438 197.489 212.416 197.545C212.353 197.694 212.416 197.757 212.416 197.8C212.697 198.037 213.732 197.937 214.325 197.694C213.893 197.465 213.421 197.321 212.934 197.271Z" fill="#2F4EFF"/>
<path d="M155.289 219.446C154.852 219.483 154.415 219.38 154.041 219.153C153.943 219.081 153.863 218.988 153.808 218.88C153.752 218.771 153.723 218.652 153.722 218.531C153.715 218.465 153.726 218.398 153.753 218.338C153.781 218.278 153.824 218.226 153.878 218.188C154.446 217.802 156.58 218.773 156.998 218.967C157.022 218.978 157.042 218.997 157.054 219.021C157.067 219.044 157.071 219.071 157.067 219.097C157.065 219.123 157.055 219.147 157.038 219.166C157.021 219.185 156.998 219.198 156.973 219.203C156.421 219.341 155.857 219.422 155.289 219.446ZM154.29 218.369C154.206 218.361 154.121 218.378 154.047 218.418C154.028 218.431 154.013 218.449 154.004 218.47C153.996 218.491 153.993 218.514 153.997 218.537C153.999 218.618 154.02 218.698 154.058 218.771C154.096 218.843 154.15 218.906 154.215 218.954C154.708 219.328 155.881 219.185 156.568 219.06C155.848 218.716 155.08 218.483 154.29 218.369Z" fill="#2F4EFF"/>
<path d="M156.973 219.228H156.924C156.218 218.942 154.796 217.802 154.877 217.211C154.877 217.08 154.977 216.918 155.301 216.88C156.549 216.719 157.073 218.992 157.092 219.085C157.097 219.107 157.096 219.131 157.09 219.152C157.083 219.174 157.071 219.194 157.055 219.21C157.03 219.224 157.002 219.231 156.973 219.228ZM155.413 217.117H155.332C155.201 217.117 155.126 217.173 155.12 217.235C155.076 217.572 156.056 218.481 156.78 218.867C156.624 218.332 156.162 217.117 155.413 217.117Z" fill="#2F4EFF"/>
<path d="M138.528 62.6833L137.48 62.5146C137.48 62.5146 138.097 63.2455 138.528 62.6833Z" fill="#263238"/>
<path d="M99.4906 19.1672C98.3861 20.5497 92.3021 22.175 87.4661 21.7266C85.8 32.6366 91.6219 45.1969 91.6219 45.1969C91.6219 45.1969 104.258 43.6961 104.57 38.5026C104.882 33.3092 99.4906 19.1672 99.4906 19.1672Z" fill="#2F4EFF"/>
<path opacity="0.4" d="M99.4906 19.1672C98.3861 20.5497 92.3021 22.175 87.4661 21.7266C85.8 32.6366 91.6219 45.1969 91.6219 45.1969C91.6219 45.1969 104.258 43.6961 104.57 38.5026C104.882 33.3092 99.4906 19.1672 99.4906 19.1672Z" fill="#EBEEF2"/>
<path d="M195.143 10.8663C196.273 12.4543 202.007 14.0297 206.444 13.2078C208.822 26.1229 204.416 41.4667 204.416 41.4667C204.416 41.4667 192.641 40.4206 191.936 34.2494C191.231 28.0783 195.143 10.8663 195.143 10.8663Z" fill="#2F4EFF"/>
<path opacity="0.4" d="M195.143 10.8663C196.273 12.4543 202.007 14.0297 206.444 13.2078C208.822 26.1229 204.416 41.4667 204.416 41.4667C204.416 41.4667 192.641 40.4206 191.936 34.2494C191.231 28.0783 195.143 10.8663 195.143 10.8663Z" fill="#EBEEF2"/>
<path d="M112.32 122.719C112.23 122.732 112.139 122.728 112.051 122.705C111.963 122.683 111.88 122.643 111.808 122.589C111.735 122.534 111.674 122.466 111.628 122.388C111.582 122.31 111.552 122.223 111.54 122.134L96.72 17.2243C96.7078 17.1317 96.7145 17.0376 96.7395 16.9475C96.7645 16.8575 96.8073 16.7734 96.8655 16.7002C96.9237 16.627 96.9961 16.5662 97.0783 16.5215C97.1605 16.4767 97.2508 16.4489 97.344 16.4397C97.4341 16.4274 97.5258 16.433 97.6138 16.4561C97.7018 16.4792 97.7844 16.5193 97.8568 16.5742C97.9292 16.6292 97.9901 16.6978 98.036 16.7762C98.0818 16.8547 98.1117 16.9413 98.124 17.0313L112.944 121.934C112.956 122.027 112.95 122.121 112.925 122.211C112.9 122.301 112.857 122.385 112.798 122.459C112.74 122.532 112.668 122.593 112.586 122.637C112.504 122.682 112.413 122.71 112.32 122.719Z" fill="#2F4EFF"/>
<path opacity="0.2" d="M112.32 122.719C112.23 122.732 112.139 122.728 112.051 122.705C111.963 122.683 111.88 122.643 111.808 122.589C111.735 122.534 111.674 122.466 111.628 122.388C111.582 122.31 111.552 122.223 111.54 122.134L96.72 17.2243C96.7078 17.1317 96.7145 17.0376 96.7395 16.9475C96.7645 16.8575 96.8073 16.7734 96.8655 16.7002C96.9237 16.627 96.9961 16.5662 97.0783 16.5215C97.1605 16.4767 97.2508 16.4489 97.344 16.4397C97.4341 16.4274 97.5258 16.433 97.6138 16.4561C97.7018 16.4792 97.7844 16.5193 97.8568 16.5742C97.9292 16.6292 97.9901 16.6978 98.036 16.7762C98.0818 16.8547 98.1117 16.9413 98.124 17.0313L112.944 121.934C112.956 122.027 112.95 122.121 112.925 122.211C112.9 122.301 112.857 122.385 112.798 122.459C112.74 122.532 112.668 122.593 112.586 122.637C112.504 122.682 112.413 122.71 112.32 122.719Z" fill="#191D23"/>
<path d="M182.938 114.923C183.031 114.935 183.125 114.928 183.215 114.903C183.306 114.878 183.39 114.835 183.463 114.777C183.537 114.719 183.598 114.647 183.642 114.565C183.687 114.483 183.715 114.393 183.724 114.3L198.576 9.39673C198.589 9.30676 198.584 9.21506 198.562 9.1269C198.539 9.03873 198.5 8.95584 198.445 8.88295C198.391 8.81006 198.323 8.74861 198.244 8.70214C198.166 8.65566 198.079 8.62507 197.989 8.61211C197.896 8.59997 197.802 8.60658 197.712 8.63153C197.621 8.65648 197.537 8.69926 197.464 8.75735C197.39 8.81543 197.329 8.88762 197.285 8.96965C197.24 9.05167 197.212 9.14185 197.203 9.23483L182.352 114.138C182.326 114.319 182.374 114.503 182.484 114.65C182.593 114.797 182.757 114.895 182.938 114.923Z" fill="#2F4EFF"/>
<path opacity="0.2" d="M182.938 114.923C183.031 114.935 183.125 114.928 183.215 114.903C183.306 114.878 183.39 114.835 183.463 114.777C183.537 114.719 183.598 114.647 183.642 114.565C183.687 114.483 183.715 114.393 183.724 114.3L198.576 9.39673C198.589 9.30676 198.584 9.21506 198.562 9.1269C198.539 9.03873 198.5 8.95584 198.445 8.88295C198.391 8.81006 198.323 8.74861 198.244 8.70214C198.166 8.65566 198.079 8.62507 197.989 8.61211C197.896 8.59997 197.802 8.60658 197.712 8.63153C197.621 8.65648 197.537 8.69926 197.464 8.75735C197.39 8.81543 197.329 8.88762 197.285 8.96965C197.24 9.05167 197.212 9.14185 197.203 9.23483L182.352 114.138C182.326 114.319 182.374 114.503 182.484 114.65C182.593 114.797 182.757 114.895 182.938 114.923Z" fill="#191D23"/>
<path d="M96.1272 19.4412L98.9352 40.0408C98.9524 40.1709 98.9976 40.2959 99.0678 40.407C99.1379 40.518 99.2314 40.6126 99.3417 40.6842C99.4519 40.7558 99.5765 40.8027 99.7067 40.8217C99.8369 40.8407 99.9696 40.8314 100.096 40.7943C106.373 39.0008 141.28 30.0586 194.9 35.7502C195.128 35.7764 195.357 35.716 195.542 35.5809C195.727 35.4459 195.855 35.2462 195.899 35.0217C196.909 29.8033 198.65 14.939 199.093 11.1342C199.12 10.8943 199.051 10.6536 198.902 10.4639C198.752 10.2741 198.535 10.1503 198.295 10.1191C191.094 9.20997 141.941 3.77364 96.7574 18.4449C96.553 18.5124 96.3784 18.6487 96.2635 18.8304C96.1486 19.0121 96.1004 19.228 96.1272 19.4412Z" fill="#2F4EFF"/>
<path opacity="0.6" d="M96.1272 19.4412L98.9352 40.0408C98.9524 40.1709 98.9976 40.2959 99.0678 40.407C99.1379 40.518 99.2314 40.6126 99.3417 40.6842C99.4519 40.7558 99.5765 40.8027 99.7067 40.8217C99.8369 40.8407 99.9696 40.8314 100.096 40.7943C106.373 39.0008 141.28 30.0586 194.9 35.7502C195.128 35.7764 195.357 35.716 195.542 35.5809C195.727 35.4459 195.855 35.2462 195.899 35.0217C196.909 29.8033 198.65 14.939 199.093 11.1342C199.12 10.8943 199.051 10.6536 198.902 10.4639C198.752 10.2741 198.535 10.1503 198.295 10.1191C191.094 9.20997 141.941 3.77364 96.7574 18.4449C96.553 18.5124 96.3784 18.6487 96.2635 18.8304C96.1486 19.0121 96.1004 19.228 96.1272 19.4412Z" fill="#EBEEF2"/>
<path d="M105.132 23.0405L108.089 22.4178L110.18 27.8417L110.71 21.8885L113.662 21.2658L116.251 26.5838L116.289 20.7365L119.234 20.1138L118.847 30.6377L115.796 31.2604L112.869 25.2699L112.245 31.9703L109.194 32.593L105.132 23.0405Z" fill="#EBEEF2"/>
<path d="M120.682 20.0017L129.099 18.7562L129.374 20.9233L124.107 21.6955L124.313 23.3145L129.199 22.5984L129.461 24.6721L124.575 25.3882L124.8 27.3996L130.223 26.6087L130.516 28.9128L121.942 30.1582L120.682 20.0017Z" fill="#EBEEF2"/>
<path d="M131.24 18.5134L134.397 18.1709L135.071 25.8739L139.994 25.3446L140.219 27.8355L132.107 28.7073L131.24 18.5134Z" fill="#EBEEF2"/>
<path d="M147.925 23.078L150.74 23.7007C150.623 24.42 150.358 25.1072 149.96 25.7183C149.595 26.2684 149.097 26.7181 148.512 27.026C147.811 27.363 147.049 27.5537 146.272 27.5864C145.344 27.6851 144.406 27.5854 143.52 27.2938C142.753 26.9629 142.102 26.4125 141.648 25.7121C141.051 24.796 140.728 23.7287 140.718 22.6358C140.555 21.2021 140.967 19.7621 141.866 18.6318C142.348 18.1216 142.928 17.7136 143.571 17.4322C144.214 17.1508 144.908 17.0017 145.61 16.994C146.669 16.8559 147.745 17.0518 148.687 17.5545C149.514 18.1032 150.137 18.9086 150.459 19.8461L147.695 20.668C147.619 20.4283 147.503 20.203 147.351 20.0017C147.16 19.7756 146.916 19.6001 146.64 19.4911C146.192 19.3083 145.692 19.2933 145.233 19.4489C144.775 19.6045 144.388 19.9203 144.144 20.338C143.841 20.9779 143.726 21.6906 143.813 22.393C143.867 23.5263 144.075 24.2923 144.437 24.6908C144.626 24.8894 144.858 25.0409 145.116 25.1329C145.374 25.2249 145.651 25.2548 145.922 25.2201C146.178 25.217 146.431 25.1599 146.663 25.0526C146.895 24.9453 147.102 24.7901 147.27 24.5974C147.615 24.1552 147.841 23.632 147.925 23.078Z" fill="#EBEEF2"/>
<path d="M151.894 21.8884C151.845 21.1721 151.939 20.4533 152.171 19.7735C152.402 19.0937 152.766 18.4664 153.242 17.9279C153.752 17.4267 154.358 17.0329 155.024 16.7697C155.689 16.5066 156.401 16.3795 157.117 16.3961C157.828 16.3254 158.545 16.3994 159.226 16.6135C159.907 16.8275 160.538 17.1773 161.079 17.6415C161.566 18.1457 161.943 18.744 162.189 19.3994C162.435 20.0549 162.543 20.7536 162.508 21.4525C162.562 22.4753 162.37 23.496 161.947 24.4291C161.565 25.2063 160.964 25.8555 160.218 26.2973C159.351 26.7808 158.373 27.0338 157.379 27.0321C156.397 27.1009 155.413 26.9432 154.502 26.5713C153.719 26.2119 153.065 25.6205 152.63 24.8775C152.119 23.9659 151.864 22.9329 151.894 21.8884ZM155.058 21.8013C155.003 22.59 155.223 23.3734 155.682 24.0181C155.876 24.2378 156.12 24.4087 156.393 24.5169C156.667 24.6251 156.962 24.6675 157.254 24.6409C157.554 24.6476 157.85 24.5866 158.123 24.4626C158.395 24.3386 158.636 24.1547 158.827 23.9247C159.262 23.2006 159.448 22.3543 159.357 21.5148C159.411 20.763 159.189 20.0173 158.733 19.4162C158.534 19.1974 158.286 19.0273 158.01 18.9193C157.734 18.8113 157.437 18.7683 157.142 18.7935C156.849 18.7926 156.559 18.8577 156.294 18.9838C156.03 19.1099 155.797 19.2939 155.613 19.5221C155.174 20.1945 154.978 20.9964 155.058 21.795V21.8013Z" fill="#EBEEF2"/>
<path d="M164.43 16.3712H168.592L170.028 22.642L171.793 16.4148L175.956 16.4522L175.675 26.727H173.079L173.291 18.887L171.082 26.7083H168.736L166.957 18.8496L166.745 26.6897H164.149L164.43 16.3712Z" fill="#EBEEF2"/>
<path d="M178.239 16.5519L186.707 16.9317L186.576 19.1237L181.272 18.8871L181.166 20.5497L186.083 20.7677L185.952 22.8289L181.035 22.6109L180.91 24.641L186.364 24.8776L186.214 27.2066L177.59 26.8205L178.239 16.5519Z" fill="#EBEEF2"/>
</svg>
