<svg width="100" height="100" viewBox="0 0 100 100" fill="none" xmlns="http://www.w3.org/2000/svg">
<g clip-path="url(#clip0_15_411)">
<path d="M96.4807 49.9979C98.0251 48.1995 99.1074 46.0514 99.6336 43.7401C100.16 41.4287 100.114 39.0238 99.5006 36.734C98.887 34.4443 97.724 32.3388 96.1125 30.6003C94.501 28.8618 92.4897 27.5427 90.253 26.7575C90.6912 24.4277 90.5544 22.0262 89.8544 19.7613C89.1543 17.4964 87.9122 15.4365 86.2358 13.7603C84.5594 12.0841 82.4994 10.8423 80.2344 10.1426C77.9694 9.44281 75.5678 9.30629 73.2381 9.74485C72.4535 7.50762 71.1347 5.49572 69.3961 3.88382C67.6576 2.27192 65.5519 1.10875 63.2618 0.49529C60.9717 -0.118173 58.5665 -0.163379 56.255 0.363595C53.9435 0.890569 51.7956 1.9738 49.9977 3.51923C48.1992 1.97486 46.0512 0.892609 43.7398 0.366363C41.4284 -0.159883 39.0235 -0.114231 36.7338 0.499356C34.444 1.11294 32.3386 2.27594 30.6 3.88744C28.8615 5.49895 27.5424 7.5103 26.7572 9.74701C24.4276 9.30917 22.0263 9.4463 19.7617 10.1465C17.4971 10.8467 15.4375 12.0889 13.7616 13.7652C12.0857 15.4415 10.8441 17.5014 10.1444 19.7662C9.44481 22.031 9.30829 24.4323 9.74673 26.7618C7.51002 27.547 5.49867 28.8661 3.88716 30.6046C2.27565 32.3432 1.11265 34.4486 0.499062 36.7384C-0.114525 39.0281 -0.160184 41.433 0.366062 43.7444C0.892308 46.0558 1.97458 48.2038 3.51895 50.0023C1.97411 51.8007 0.891505 53.9489 0.36511 56.2605C-0.161286 58.5721 -0.115588 60.9773 0.498269 63.2673C1.11213 65.5572 2.27557 67.6628 3.88763 69.4011C5.49969 71.1395 7.51167 72.4582 9.7489 73.2427C9.31008 75.5723 9.44644 77.9738 10.1462 80.2387C10.8459 82.5036 12.0878 84.5635 13.7641 86.2396C15.4405 87.9157 17.5006 89.1574 19.7656 89.8568C22.0306 90.5563 24.4321 90.6923 26.7616 90.2532C27.5468 92.4899 28.8658 94.5013 30.6044 96.1128C32.3429 97.7243 34.4483 98.8873 36.7381 99.5009C39.0278 100.114 41.4327 100.16 43.7441 99.6339C46.0555 99.1076 48.2036 98.0254 50.002 96.481C51.8004 98.0258 53.9486 99.1084 56.2603 99.6348C58.5719 100.161 60.977 100.116 63.267 99.5017C65.5569 98.8878 67.6625 97.7244 69.4008 96.1123C71.1392 94.5002 72.4579 92.4883 73.2425 90.251C75.5721 90.6897 77.9736 90.5533 80.2385 89.8536C82.5035 89.1538 84.5635 87.9119 86.2397 86.2357C87.916 84.5594 89.1579 82.4995 89.8576 80.2345C90.5574 77.9695 90.6938 75.568 90.2551 73.2384C92.492 72.4534 94.5035 71.1343 96.1151 69.3957C97.7267 67.6571 98.8896 65.5515 99.5031 63.2616C100.116 60.9717 100.162 58.5667 99.6351 56.2554C99.1084 53.944 98.0257 51.796 96.4807 49.9979Z" fill="#2F4EFF"/>
<path d="M41.0246 69.0843L27.1301 55.1985C26.6028 54.6703 26.3066 53.9545 26.3066 53.2082C26.3066 52.4618 26.6028 51.746 27.1301 51.2178L28.8182 49.5276C29.3464 49.0003 30.0622 48.7041 30.8085 48.7041C31.5549 48.7041 32.2707 49.0003 32.7989 49.5276L42.899 59.6212L66.6855 34.3439C67.1973 33.8008 67.9037 33.483 68.6496 33.4602C69.3956 33.4375 70.12 33.7116 70.664 34.2225L72.3976 35.8585C72.9413 36.3705 73.2595 37.0773 73.2822 37.8238C73.305 38.5702 73.0304 39.2951 72.5189 39.8392L45.0724 69.0214C44.814 69.2968 44.5028 69.5175 44.1574 69.6702C43.812 69.823 43.4394 69.9047 43.0618 69.9106C42.6842 69.9164 42.3092 69.8463 41.9593 69.7044C41.6093 69.5624 41.2914 69.3515 41.0246 69.0843Z" fill="white"/>
</g>
<defs>
<clipPath id="clip0_15_411">
<rect width="100" height="100" fill="white"/>
</clipPath>
</defs>
</svg>
